#tb 0: 1/100
0,          0,          0,        1,      507, 0x91080fbf
0,         10,         10,        1,      193, 0x1d7e4858
0,         20,         20,        1,      130, 0xfe2d2987
0,         30,         30,        1,      395, 0xf717a07e
0,         40,         40,        1,      431, 0x940db956
0,         50,         50,        1,      466, 0xb8dccc62
0,         60,         60,        1,      542, 0x0ae8e79a
0,         70,         70,        1,      597, 0x5baf0acf
0,         80,         80,        1,      969, 0x87e2cc88
0,         90,         90,        1,     1044, 0xd5daf5ef
0,        100,        100,        1,     1185, 0xbcb62ceb
0,        110,        110,        1,     1273, 0x15895efd
0,        120,        120,        1,     1352, 0x53b287f7
0,        130,        130,        1,     1428, 0x55c2a576
0,        140,        140,        1,     1488, 0x65eacda9
0,        150,        150,        1,     1428, 0xef6d8e92
0,        160,        160,        1,     1709, 0xd59b38bd
0,        170,        170,        1,     1834, 0xa7a6676f
0,        180,        180,        1,     1933, 0xa9f5915f
0,        190,        190,        1,     1944, 0x51f28eb4
0,        200,        200,        1,     2170, 0xa28a0d4e
0,        210,        210,        1,     2051, 0x893eb9bf
0,        220,        220,        1,     2250, 0x32c2449c
0,        230,        230,        1,     2334, 0x94bc4f85
0,        240,        240,        1,     2267, 0x957d32eb
0,        250,        250,        1,     2447, 0xb1098a71
0,        260,        260,        1,     2552, 0xb38bb5d4
0,        270,        270,        1,     2450, 0x30447fb7
0,        280,        280,        1,     2893, 0x1dbc5e35
0,        290,        290,        1,     2905, 0x3b495cac
0,        300,        300,        1,     3158, 0xd4570380
0,        310,        310,        1,     3276, 0xd30827f4
0,        320,        320,        1,     3439, 0xcdac7c90
0,        330,        330,        1,     3481, 0x561c6e32
0,        340,        340,        1,     3641, 0xf314bfe5
0,        350,        350,        1,     3727, 0x8e8ff2c3
0,        360,        360,        1,     3826, 0x728f3cee
0,        370,        370,        1,     3933, 0x29cb6577
0,        380,        380,        1,     3944, 0xc9455d41
0,        390,        390,        1,     4011, 0x141d88dd
0,        400,        400,        1,     4119, 0x6d74b89b
0,        410,        410,        1,     4132, 0x93da9bd7
0,        420,        420,        1,     4332, 0xdabb38ff
0,        430,        430,        1,     4400, 0xd49955a6
0,        440,        440,        1,     4376, 0x674b0ffe
0,        450,        450,        1,     4483, 0xd89c764c
0,        460,        460,        1,     4623, 0xbb7ec92d
0,        470,        470,        1,     4692, 0xaf8bf4c9
0,        480,        480,        1,     4752, 0x8259213a
0,        490,        490,        1,     4947, 0x29c786e3
0,        500,        500,        1,     5076, 0x49f0bb0c
0,        510,        510,        1,     5189, 0x5295fa2f
0,        520,        520,        1,     5287, 0x3cc83668
0,        530,        530,        1,     5414, 0x95bfb406
0,        540,        540,        1,     5688, 0xbc080b7a
0,        550,        550,        1,     5806, 0x756742d5
0,        560,        560,        1,     5905, 0x2e668221
0,        570,        570,        1,     6056, 0xe76bbf67
0,        580,        580,        1,     6126, 0x9959e501
0,        590,        590,        1,     6203, 0x4ea0be07
0,        600,        600,        1,     6313, 0x1a4e1744
0,        610,        610,        1,     6416, 0x6a5a1e08
0,        620,        620,        1,     6471, 0xb2cb5000
0,        630,        630,        1,     6552, 0x43d07883
0,        640,        640,        1,     6650, 0xe993ae84
0,        650,        650,        1,     6811, 0x1902fd8d
0,        660,        660,        1,     6966, 0x324a604f
0,        670,        670,        1,     7063, 0xbe2d7441
0,        680,        680,        1,     7107, 0xf0a16cdf
0,        690,        690,        1,     7163, 0x93747168
0,        700,        700,        1,     7169, 0x0d0791d0
0,        710,        710,        1,     7255, 0xa00bc770
0,        720,        720,        1,     7355, 0xe3e9ef39
0,        730,        730,        1,     7407, 0x392d0e75
0,        740,        740,        1,     7485, 0xfd1c3a13
0,        750,        750,        1,     7512, 0x31e84bce
0,        760,        760,        1,     7495, 0xb340ec92
0,        770,        770,        1,     7602, 0x75043f9d
0,        780,        780,        1,     7677, 0x8e4972ea
0,        790,        790,        1,     7824, 0x7aadda27
0,        800,        800,        1,     7975, 0xb5510d88
0,        810,        810,        1,     8093, 0xfa944446
0,        820,        820,        1,     8249, 0x1da4671e
0,        830,        830,        1,     8288, 0xbf2f9b73
0,        840,        840,        1,     8418, 0xcec6ebe7
0,        850,        850,        1,     8508, 0x8d852009
0,        860,        860,        1,     8563, 0xfcdf2ea0
0,        870,        870,        1,     8676, 0x2a567c4d
0,        880,        880,        1,     8779, 0x40d77560
0,        890,        890,        1,     8897, 0xf707c828
0,        900,        900,        1,     9036, 0xd1401652
0,        910,        910,        1,     9050, 0x46760af2
0,        920,        920,        1,     9102, 0x177b2b76
0,        930,        930,        1,     9207, 0x8f113246
0,        940,        940,        1,     9227, 0xc4c03f9c
0,        950,        950,        1,     9480, 0x9e26defd
0,        960,        960,        1,     9548, 0x1a6cfb21
0,        970,        970,        1,     9756, 0x0c547a64
0,        980,        980,        1,     9884, 0x67db7d02
0,        990,        990,        1,     9960, 0x3901d566
0,       1000,       1000,        1,    10020, 0x45cd0035
0,       1010,       1010,        1,    10107, 0x071d10de
0,       1020,       1020,        1,    10268, 0x0d1f723e
0,       1030,       1030,        1,    10409, 0xab71b500
0,       1040,       1040,        1,    10512, 0xf415fc0d
0,       1050,       1050,        1,    10667, 0xadd43de6
0,       1060,       1060,        1,    10789, 0xaabcb5ba
0,       1070,       1070,        1,    10807, 0x578564f1
0,       1080,       1080,        1,    11051, 0x89e6bc1c
0,       1090,       1090,        1,    11121, 0x68611ce7
0,       1100,       1100,        1,    11243, 0xc2293d04
0,       1110,       1110,        1,    11412, 0x430e92f4
0,       1120,       1120,        1,    11446, 0x7da6be3a
0,       1130,       1130,        1,    11592, 0x02d51db6
0,       1140,       1140,        1,    11666, 0x78590e6c
0,       1150,       1150,        1,    11767, 0xfdf54b91
0,       1160,       1160,        1,    11805, 0x96eeb115
0,       1170,       1170,        1,    11878, 0x387f9de3
0,       1180,       1180,        1,    11980, 0xd93cbaca
0,       1190,       1190,        1,    12065, 0xa504c7d1
0,       1200,       1200,        1,    12142, 0xe9660a75
0,       1210,       1210,        1,    12294, 0xd8627ea2
0,       1220,       1220,        1,    12358, 0xf7ab4df0
0,       1230,       1230,        1,    12415, 0xcf1a4811
0,       1240,       1240,        1,    12484, 0x0c59905f
0,       1250,       1250,        1,    12637, 0x220c0c94
0,       1260,       1260,        1,    12705, 0xef421ab5
0,       1270,       1270,        1,    12884, 0x3def62ad
0,       1280,       1280,        1,    12934, 0xb469cd56
0,       1290,       1290,        1,    13018, 0x4c66e202
0,       1300,       1300,        1,    13120, 0x63e2d409
0,       1310,       1310,        1,    13379, 0x30fc473b
0,       1320,       1320,        1,    13442, 0x31f5a18d
0,       1330,       1330,        1,    13496, 0x1374a646
0,       1340,       1340,        1,    13638, 0x65a9cd1e
0,       1350,       1350,        1,    13672, 0x55f0a47a
0,       1360,       1360,        1,    13780, 0x5b931209
0,       1370,       1370,        1,    14041, 0x65aa5a1c
0,       1380,       1380,        1,    14177, 0x0982ccc2
0,       1390,       1390,        1,    14386, 0x8dcc0c8d
0,       1400,       1400,        1,    14464, 0x97f961d1
0,       1410,       1410,        1,    14503, 0x337b31e0
0,       1420,       1420,        1,    14620, 0x7be29621
0,       1430,       1430,        1,    14786, 0x721ae651
0,       1440,       1440,        1,    14954, 0x9332ecfd
0,       1450,       1450,        1,    15113, 0x5e9796e0
0,       1460,       1460,        1,    15237, 0x23a2b15d
0,       1470,       1470,        1,    15258, 0x7af1b15a
0,       1480,       1480,        1,    15401, 0x4c87e5ea
0,       1490,       1490,        1,    15485, 0xf434d51b
0,       1500,       1500,        1,    15590, 0xf3438a5e
0,       1510,       1510,        1,    15639, 0x3c1191ba
0,       1520,       1520,        1,    15710, 0x3f8fb09e
0,       1530,       1530,        1,    15845, 0xef17e0d0
0,       1540,       1540,        1,    15819, 0x8e410489
0,       1550,       1550,        1,    15934, 0x1dc30805
0,       1560,       1560,        1,    16086, 0xe8668b2b
0,       1570,       1570,        1,    16134, 0xa870a1ad
0,       1580,       1580,        1,    16235, 0xbc6cb3ff
0,       1590,       1590,        1,    16255, 0x2ebb95fe
0,       1600,       1600,        1,    16553, 0xe6302d8a
0,       1610,       1610,        1,    16670, 0xd0334b51
0,       1620,       1620,        1,    16849, 0x19c680c3
0,       1630,       1630,        1,    16961, 0x830c19d7
0,       1640,       1640,        1,    16964, 0x11682a72
0,       1650,       1650,        1,    17178, 0x394b922c
0,       1660,       1660,        1,    17233, 0x39326f15
0,       1670,       1670,        1,    17377, 0xef8a7825
0,       1680,       1680,        1,    17479, 0x08a48972
0,       1690,       1690,        1,    17498, 0x2b8a7493
0,       1700,       1700,        1,    17620, 0xd2131afa
0,       1710,       1710,        1,    17560, 0xf7b16916
0,       1720,       1720,        1,    17648, 0xc5fd212d
